<svg height='300px' width='300px'  fill="#000000" xmlns="http://www.w3.org/2000/svg" xmlns:xlink="http://www.w3.org/1999/xlink" version="1.1" x="0px" y="0px" viewBox="0 0 100 100" style="enable-background:new 0 0 100 100;" xml:space="preserve"><g><path d="M201.2,149.3c8.5,0,15.5-12,15.5-20.5c0-8.5-6.9-15.5-15.5-15.5c-8.5,0-15.5,6.9-15.5,15.5   C185.8,137.3,192.7,149.3,201.2,149.3z M188.3,128.7c0-7.1,5.8-12.9,12.9-12.9c7.1,0,12.9,5.8,12.9,12.9c0,3.8-1.6,8.4-4.1,12   c-2.6,3.8-5.8,6-8.8,6c-3,0-6.2-2.2-8.8-6C189.9,137.1,188.3,132.5,188.3,128.7z"></path><path d="M201.2,151.8c-14.5,0-26.2,10.1-26.2,22.6s11.7,30,26.2,30c14.5,0,26.2-17.5,26.2-30S215.7,151.8,201.2,151.8z    M201.2,201.9c-3.4,0-10-1.2-16.5-9.4c-4.4-5.5-7.1-12.4-7.1-18.1c0-11.1,10.6-20.1,23.6-20.1c13,0,23.6,9,23.6,20.1   c0,5.7-2.7,12.6-7.1,18.1C211.3,200.7,204.6,201.9,201.2,201.9z"></path></g><g><path d="M50,54.8c10.5,0,19-8.5,19-19s-8.5-19-19-19s-19,8.5-19,19S39.5,54.8,50,54.8z"></path><path d="M65,56.7l-0.6-0.1l-0.5,0.3c-4.1,2.7-9,4.2-13.9,4.2s-9.8-1.5-13.9-4.2l-0.5-0.3L35,56.7c-13.4,3.4-20.5,12-20.5,25l0,1.5   h69.7l1.3-0.1l0-1.5C85.5,68.7,78.4,60.1,65,56.7z"></path></g></svg>